<svg xmlns="http://www.w3.org/2000/svg" viewBox="0 0 693.35 116.28"><defs><style>.cls-1{fill:#842c6b;}.cls-2{fill:#5a3154;}</style></defs><g id="Layer_2" data-name="Layer 2"><g id="Layer_1-2" data-name="Layer 1"><rect class="cls-1" x="2.32" y="2.52" width="691.03" height="110.5" rx="39.8"/><path class="cls-2" d="M3.4,26.86,2.77,29c-.11.36-.22.71-.31,1l-.15.84c.18-.83.46-1.55.65-2.22A15.85,15.85,0,0,0,3.4,26.86Z"/><path class="cls-2" d="M307.25,1.27l1.62,0L308,1.18Z"/><path class="cls-2" d="M308,1.18l2.82-.3C306.59,1,306.82,1.09,308,1.18Z"/><path class="cls-2" d="M2.46,55.75c.07,2.88.18,5.71.37,8.31Z"/><path class="cls-2" d="M7.45,25.94a16,16,0,0,0,1-1.67C8.1,24.78,7.77,25.37,7.45,25.94Z"/><path class="cls-2" d="M217.19,115.73l-1.22.12A7.26,7.26,0,0,0,217.19,115.73Z"/><path class="cls-2" d="M238.86,115.23c1.82,0,3.41,0,5,0l.3-.07C243.28,115.08,240.34,115.18,238.86,115.23Z"/><path class="cls-2" d="M230.22,114.83l4.43,0C233,114.79,231.58,114.8,230.22,114.83Z"/><path class="cls-2" d="M374,111.21l.67-.32C374,111,373.88,111.13,374,111.21Z"/><path class="cls-2" d="M212.35,116.12c1.29-.07,2.45-.17,3.62-.27C214,115.93,210.84,116,212.35,116.12Z"/><path class="cls-2" d="M3.53,26.11c0,.21-.08.49-.13.75C3.62,26.07,3.78,25.64,3.53,26.11Z"/><path class="cls-2" d="M2.56,76.26v-.42C2.44,74,2.47,74.72,2.56,76.26Z"/><path class="cls-2" d="M425.71,1.13l9-.11c-3.42-.05-5.66-.06-7,0A6.06,6.06,0,0,0,425.71,1.13Z"/><path class="cls-2" d="M137.67,115.06c-3.14-.93,11.38,0,10.55-.93-5.91.2-10.33.35-13.06-.14,4.85-.51,12.2.05,14.55-.72l-8.85.3c-5.67-.39,2.13-1-3.14-.93-7.4,1-25.44-.41-33.66-.25l3-.1-12.62-.5c-.13,0,0,0-.07-.05a3.79,3.79,0,0,0-.57.19c-5-.52-14.48-.89-25-.77-2,.3-10.32.35-18.73.38l-6.24,0h-1.5c-.49,0-.94,0-1.41,0l-2.64-.1c-1.66-.25-3.17-.38-4.37-.63s-2.14-.46-2.72-.54l3,.69,3.07.46a30.56,30.56,0,0,0,3.29.28c.58,0,1.17.1,1.8.12l2,0-.86.72a26.69,26.69,0,0,1-2.87-.11c-.71,0-1.19-.1-1.51-.14-.66-.09-.72-.17-.76-.22s-.14-.1-4.76-.73a6.13,6.13,0,0,0,2.8.92,28.3,28.3,0,0,0,5.33.41c4.07-.07,8.82-.32,12.28-.25-2.52.22-6,.42-10.31.52,13.9,0,27.23.37,36.84-.6,4,.21,2.08.61-.87.71,10.11-.57,7.36.56,16,0-3,.91-20.82.47-29.47,1-6.42-.36-13.84-.37-21.45-.27-.95,0-1.9,0-2.86,0l-2.93-.1a21.73,21.73,0,0,1-2.91-.29,25.22,25.22,0,0,1-2.89-.47l-2.83-.67c-.93-.25-1.83-.61-2.73-.91L26.22,111l-1.29-.6c-.84-.4-1.7-.77-2.52-1.2-.13-.39,2.22.37,3.9.88s2.85.53.3-.64a54.21,54.21,0,0,1-7-4.1c-.83-.62-1.57-1.14-2.25-1.61s-1.21-1-1.75-1.39-1.07-.81-1.56-1.22l-1.43-1.31A20.21,20.21,0,0,1,11,98.25c-.52-.6-1.09-1.27-1.73-2a10.5,10.5,0,0,1-.89-1.44c-.24-.43-.44-.81-.62-1.14A12,12,0,0,1,7,92.08a10.26,10.26,0,0,1-.37-1.64,8,8,0,0,0-.25-.94c-.12-.41-.36-.91-.56-1.66S5.32,86.18,4.91,85c-.18-.61-.32-1.31-.52-2.08a25.71,25.71,0,0,1-.57-2.6,17.23,17.23,0,0,0,.61,2.24l.68,2.21L6,86.87A17.2,17.2,0,0,0,7,89c-.09-.26-.19-.52-.27-.76s-.14-.5-.2-.73c-.13-.47-.25-.91-.37-1.32-.22-.82-.51-1.5-.63-2.15a27.87,27.87,0,0,0-1-3.09,21.59,21.59,0,0,1-1.1-6.75c0,2.22-.84,2.35,1.07,10-.07.44-.51-.79-1-2.5a27.68,27.68,0,0,1-.57-2.8c-.09-.47-.17-.94-.24-1.38s-.07-.85-.11-1.21l0,.93c0,.31.08.62.12.93a16.56,16.56,0,0,1-.54-2.22c-.15-.73-.28-1.49-.41-2.48a95.85,95.85,0,0,1-.11-9.79c.56,6.33.43-8,.68-10.5l.12,2.62c-.09-3.68-.12-7.42-.13-10.83,0-.85,0-1.68,0-2.49s.06-1.58.09-2.32,0-1.46.12-2.12.17-1.29.25-1.87l.08.41c.07-.69.13-1.33.19-1.93s.19-1.16.27-1.71.17-1.08.26-1.61a10.39,10.39,0,0,1,.34-1.62,33.55,33.55,0,0,1,1.14-3.59,29.35,29.35,0,0,1,2.37-4.58c0,.22-.37.92-.71,1.74S6.09,25,5.89,25.71c-.41,1.34-.36,1.54,1.54-2.45A18.08,18.08,0,0,1,6.6,25.5c-.22.56-.55,1.18-.79,1.91L5,29.78A43.67,43.67,0,0,0,2.88,41.51c.08-1,.16-1.91.22-2.76s.3-1.6.42-2.25A10.3,10.3,0,0,1,4.26,34c.19-.35.23-.17.1.68,0,.43-.08,1-.18,1.81a26.13,26.13,0,0,0-.3,3c.09-.32.13-.7.21-1.13s.18-.89.27-1.4c.18-1,.24-2.22.57-3.45a26,26,0,0,1,1-3.83c.23-.64.45-1.27.68-1.89a14.93,14.93,0,0,1,.85-1.75c-.54.75,0-.8-.31-.53.36,0,2.39-4.19,5.33-7.86s6.59-6.71,6.55-7l-1.86,1.51-1.7,1.68-.84.84c-.28.28-.52.6-.78.9L12.32,17.3c-.24,0,.07-.49.62-1.29l1-1.33a16.09,16.09,0,0,1,1.23-1.39c1.61-1.85,3.23-3.15,1.55-2.12,1.09-.48,2.79-1.86,5.17-3.17a46.67,46.67,0,0,1,8.32-3.87l2.35-.66a17.92,17.92,0,0,1,2.33-.56,34.17,34.17,0,0,1,4.44-.59,31.42,31.42,0,0,1,6.29.11L42.11,2C62,2.24,78.52,1.19,98.67,1c-6.92.28-7.49,1.28-19.88.94,18.92.19,5.57,1,11.4,1.48,14.74.37,7.66-.92,12.23-1.24l-10.27.18c13.2-1.15,38.22.26,58.63-.46,1.51.3-4.18.17-6.94.28,9.16.6,8.9-.12,14.42-.35,9.48.1,20.88.36,15,1.09,10.42.18-1.11-.44,4.44-.67l1.94.17,11-.82c9,.23,20,.63,24,1.32,21.1-.14,7.36-1.64,22.75-1.91,8.63.37-1.65.55-2.47.83l13.62-.07c-4.87.81-15.85.41-15,1.35,11.39-1,15.4-.27,30.7-.9l-1-.09c6.79-.64,22.5-.19,31.41-.31-3.63.39-13.49.43-20,.58,10,.32,35.28,0,43.9-.84,5.7.13,18.05.48,9.71.82,20.3.14,8.47-1.2,26-1l-.69.64c19.19.92,37.8-.83,56,0l1.12-.78c3.91.33,12,.48,13.49.79L415,2.32c7.79.66,9.18-.62,18.76-.17-.09-.23-8-.76-8-1-38.92.45-77.48-.67-116.84.12,1.48.09,3.25.2,2.25.35-4.29-.19-12.21,0-11-.4l1.4-.06C291.28,1.32,282,.36,275.84.37c-4,.53-21.25-.22-16.67.69L252.39.48c-2.25.34-1.13.78-5.31,1C240,1.36,239.86,1,245.41.77,218.47.42,186.49.52,158.82.8l7.4-.42C159.56.16,142,1.13,147.73,0c-13.48.44-36.83-.31-37.79.83C101-.23,77.27.39,58.52.55c1.59.48-2.26.55-7.14.55H43.84l-1.74,0-1.62.11c-1,.08-1.88.16-2.53.25-.34-.05-.35-.13-.1-.24A8.94,8.94,0,0,1,39.32,1C40,.87,40.91.78,41.91.68s2-.09,3.08-.14C49.28.38,53.93.25,54.08,0,51.66.15,49,.24,46.21.3L41.9.38,39.56.51A20.85,20.85,0,0,0,37.2.7,43.7,43.7,0,0,0,19.08,7.15,39.34,39.34,0,0,0,7,19.23c-.62,1.06-1.2,2.08-1.72,3s-.83,1.93-1.17,2.79a12.86,12.86,0,0,0-.74,2.39c-.17.73-.29,1.37-.36,1.9a11.1,11.1,0,0,0-.47,1.3,3.91,3.91,0,0,1-.22.6c-.08.19-.07,0,0-.42-.25.94-.53,2-.83,3S1.05,36,.84,37.1a25.29,25.29,0,0,0-.41,3.32c-.1,1.08-.19,2.14-.19,3,.33,2.21.49-5.84.61,3.07-.07,7.06-.6,3-.85,6,.09,3.37.19,7.24.29,11.18.05,2,.09,4,.14,5.91s.06,3.85.25,5.79a38,38,0,0,0,2,9.68c.44,1.24.94,2.25,1.3,3,.18.39.35.71.49,1a2.67,2.67,0,0,0,.41.55c.39,1,.78,1.91,1.12,2.77s.73,1.54.92,2c.4,1,.25,1-1-1,.78,1.17,1.43,2.3,2.16,3.28l2.13,2.72a50.8,50.8,0,0,0,4,4.09c.64.56,1.23,1.11,1.82,1.61l1.77,1.33a32,32,0,0,0,3.42,2.3,31.94,31.94,0,0,0,3.63,2,37,37,0,0,0,4.35,1.76,40.57,40.57,0,0,0,13,2c-2-.08-3.19-.1-4.11-.07l-2.25-.08c-.36,0-.75,0-1.21-.07a8.87,8.87,0,0,1-1.68-.27,31.43,31.43,0,0,1-5.85-1.85q.77.39,1.71.81a12.5,12.5,0,0,0,2.12.77l2.48.73c.89.21,1.84.34,2.83.51l1.52.24c.52,0,1,.06,1.59.09,1.07,0,2.23.14,3.31.13l6.8-.06c9.39-.12,19.86-.3,28.49,0l7-.7c10.5-.12,11.12.55,3.77.8,17.86.44,27.36,0,41,0,.81.09.19.23-2.1.19l19.75,0c2-.17,9.1-.52,7.65-1C152.53,115.08,148.41,115.32,137.67,115.06Z"/><path class="cls-2" d="M155,114.68l.51-.08h-.77A1.68,1.68,0,0,1,155,114.68Z"/><path class="cls-2" d="M3.7,69.36a43.69,43.69,0,0,0-.25,4.8C3.48,73.24,3.62,71.91,3.7,69.36Z"/><path class="cls-2" d="M340.53,113.42c-2.5-1.06-12,.18-20.62-.11,8.18-.16,6.12-.78,5.07-1.09-10.13,1.37-12.41-.27-31.13,0-.41-.45,8.63-.52,9.68-1-10.3.35-26.09.53-28.4,1.3-17.47,0-29.89-.26-40.42-.14,12.65-.31,2.34-.76,11.6-1.42-12.82.89-41.48,2-60.22,3.06-2.28-.85-3.12-.93-.8-1.7-21-.56-6.12.78-26.11.53l9.24.15c-9.4.25-10,1.05-12.93,1.61l23.44-.12c-.22.58-14.75.49-19.14.64-7,.7,12.59.5,10,1,3.39-.45,12.64-.3,18.54-.5l1,.31c10.92.32,17-.46,26.92-.45.88.09,1,.16.85.21,3.46-.35,7-.78,13-.9l-4.6,0c8.42-.75,29.27-1.22,15.6-2l23.78.23c-2.66.81-7.44,2.06-21.17,2.15l-1.6.34c10.28.46,29-.63,22.32-1.32,10.35-2,36.42-.07,53.9-.89,1.23.53-8.44.74-12.68,1.12-5.25.06-9,.07-9.44-.38-22.53.3,4.59,1.69-20.66,1.5-12.4-.27,15.18-.85-3.14-.93l-13.07,1.48c11.36,0,21.62-.28,30.75-.46,50.71-1,86.56-.15,86.56-.15l223.53-.48c23.38-.21,31.8-.15,41.06-1.61-4.83-.3-19.14-.17-14.29-.68-2.52.55-11.38.85-23.58.8-1.25-.54,11.18-.26,8-.39l-2.32,0a38.67,38.67,0,0,1,7.16-.47c-13.66-.8-39.33-.63-49,.39-11.13-.55,7.58-.84,13.28-1.26-39.12-.41-65.63-.32-105.19-.38-.64,1-4,.6-9.49,1.24l-3.36-.34c1.7.17-3.81.82,4,1-22.68-.73-26.93,1.25-42.52,1.66l1.08-.49c-12.86.08-16.65.09-27.79.35-20.6-.92,18.1-.14,12.43-1.33l-5.89.19a126.58,126.58,0,0,1,13.71-1.61c-19.79.78-28.39-.31-49.86.29,2.54-.54,21.87-1,27.17-1-7.26-.06-20.26.34-20.87-.16l-1.47.68c-12.81.08,1.7-.64-2.49-1.07C339.73,110.92,366,113,340.53,113.42Z"/><path class="cls-2" d="M34.05,112.2l2.63.43,1.25.2c.41,0,.82,0,1.22.07,1.61.06,3.1.14,4.53.08-1.61,0-3.22-.1-4.83-.17a17.63,17.63,0,0,1-2.4-.27Z"/><path class="cls-2" d="M94.33,111.74a7.09,7.09,0,0,1,1.14-.25C94.4,111.55,94,111.63,94.33,111.74Z"/><path class="cls-2" d="M100.3,110.79c1.47.31-2.36.31-4.83.7C99.37,111.27,109.37,111.27,100.3,110.79Z"/><path class="cls-2" d="M660.9,110.25c-.42.12-1.2.29-2.11.47-.45.1-.94.21-1.42.29l-1.46.15c-.93.09-1.76.18-2.23.25s-.62.1-.13.14a42.18,42.18,0,0,0,11-1.87C663.32,109.87,662.11,110.11,660.9,110.25Z"/><path class="cls-2" d="M680.7,100.52a42.91,42.91,0,0,0,6.85-8.66c.43-1.17.8-2.36,1.2-3.52s.56-2.39.84-3.57c-.51,1.36-.88,2.5-1.25,3.42s-.74,1.63-1,2.25c-.13.31-.24.59-.35.84l-.34.69-.57,1.15a14.35,14.35,0,0,1-1.46,2.6c-.39.56-.84,1.23-1.44,2S681.71,99.43,680.7,100.52Z"/><path class="cls-2" d="M692.57,72.53c.1.88.09,1.71.13,2.57C692.74,72.75,692.62,72.23,692.57,72.53Z"/><path class="cls-2" d="M692.18,72.08l-.67-4.46.12,3.71.07,1.86,0,1.79,0,1.79c0,.6-.12,1.18-.17,1.78a26.55,26.55,0,0,1-.54,3.54c.12-.44.27-.88.36-1.33l.23-1.35c.14-.91.38-1.81.44-2.73.22-.06.54-3.59.61-4.15l-.48-5.59C692.15,68.31,692.27,71.1,692.18,72.08Z"/><path class="cls-2" d="M692.15,59.35c-.07.33-.13.78-.2,1S692.09,60.08,692.15,59.35Z"/><path class="cls-2" d="M691.7,30.81c.24,1.45-.08.73-.57-.4s-1.3-2.62-1.57-2.95a63.49,63.49,0,0,1,3,10.87c.15,1.37.33,2.71.42,4.34s0,3.55,0,6c-.53-15.43-.4,5.57-.78,10.63a50.78,50.78,0,0,0,.78-6.9c.11-1.62.2-3.5.27-5.7s.18-4.72,0-7.61a9.67,9.67,0,0,0-.52-1.2c-.46-3-.49-3.73-.56-4.22A15,15,0,0,0,691.7,30.81Z"/><path class="cls-2" d="M644.09,3.48l9.16-.62c.39.06,1.57.2,3.12.33l1.23.1,1.3.24c.89.17,1.82.31,2.71.52,3.59.91,6.66,2.38,6.22,2.53a11.78,11.78,0,0,1,1.56.62l1.27.55a20,20,0,0,1,2,.9l1.82.92a14.71,14.71,0,0,1,2.19,1.35,106.54,106.54,0,0,1,8.08,8.23l-1.12-1.57-1.16-1.34A22.91,22.91,0,0,0,680.37,14c-.7-.66-1.33-1.27-1.91-1.83l-1.74-1.37c-.53-.41-1-.84-1.48-1.15l-1.35-.88a22.31,22.31,0,0,0-2.33-1.43l-2.31-1.21c-.83-.4-1.77-.72-2.87-1.16a37,37,0,0,0-9.93-2.17,5.89,5.89,0,0,1,1.84.06l3.25.51a61.07,61.07,0,0,0-12.29-1.15C648.11,3,632.15,3,644.09,3.48Z"/><path class="cls-2" d="M626,3c9.88,0,15.31-.63,10.44-1l-21,.5C621.57,2.46,629.1,2.39,626,3Z"/><path class="cls-2" d="M611.44,3a92,92,0,0,0-17.1-.39C605.61,2.51,600.31,3.46,611.44,3Z"/><path class="cls-2" d="M540.14,2.4l19.45.42c3.61.83-9.31.26-15.26.63,16.52.17,11.26-.1,23.74-.62,4.74.06,12.09-.37,17.65-.6C560.57,2.9,559.33.88,540.14,2.4Z"/><polygon class="cls-2" points="579.04 3.24 581.27 2.9 571.95 3.16 579.04 3.24"/><path class="cls-2" d="M494.16,1.49c-11.7-1-22.39.56-35.73.13,1.41-.05.42-.14,3.2-.25l-11.27.1-.52-.22c.67.58-11,.82-16,1.27,11.55.62,5.83-.73,16,0-2.45.26-4.22.67-6.55.88,6.9-.29,8.63-.64,11.71-1,7.52-.07,5.26.27,5.83.49,8.35-.35,8.48-1.21,21.24-1,8.21.51-4.85.81,9.19.6-6.94-.94,14.16.14,19.58-.45,10.44.18,17.25.76,15,1.09-.29-.72,8.9-1.34,16.84-1.54L525,2.17l-6-.85c-9.73.4-16.83.33-26.26.23Z"/><path class="cls-2" d="M443.26,3.35l-3.86.16A36.27,36.27,0,0,0,443.26,3.35Z"/><polygon class="cls-2" points="528.75 3.36 524.57 3.53 527.49 3.78 528.75 3.36"/><path class="cls-2" d="M434.4,4c2.35,0,3.18-.26.83-.28l-3.62.39Z"/><polygon class="cls-2" points="423.83 3.42 417.99 2.92 414.38 3.32 423.83 3.42"/><path class="cls-2" d="M184.13,2.93c7.66.3,6.94-.28,8.2-.7C180.53,2.1,192.06,2.73,184.13,2.93Z"/><path class="cls-2" d="M33.7,4.61a75.33,75.33,0,0,1,12.16-.9c4.08-.09,8.15-.23,12.39-.22-3.83-.15-8.31-.18-12.7-.13l-3.27,0c-1.06.06-2.08.15-3.09.22A20.16,20.16,0,0,0,36.31,4L35,4.3l-.65.12Z"/><path class="cls-2" d="M5.43,52.56c-.18-2.11-.28-5.06-.36-.44L4,43.85C3.69,56.24,5,53,5.43,52.56Z"/><path class="cls-2" d="M32.71,108.48l-1.33-.28c-.43-.11-.85-.28-1.29-.41-.85-.3-1.73-.53-2.57-.87L25,105.83c-.84-.35-1.59-.87-2.4-1.29l1.2.74a9.91,9.91,0,0,0,1.23.69l2.55,1.24a29,29,0,0,1-8.25-3.74,21.08,21.08,0,0,0,2.58,1.68c.89.48,1.72,1,2.57,1.39l2.46,1a15.76,15.76,0,0,0,2.2.7c.67.19,1.27.35,1.77.46a9,9,0,0,0,1.27.13C32.84,108.88,33.05,108.76,32.71,108.48Z"/><path class="cls-2" d="M12,96.53a33.89,33.89,0,0,0,2.75,3.1c-.37-.5-.65-.91-1-1.37S12.78,97.31,12,96.53Z"/><path class="cls-2" d="M18.08,102.67l1.27.8-1.24-.88c-.4-.3-.76-.65-1.15-1l-1.12-1a9.22,9.22,0,0,1-1.06-1,6.93,6.93,0,0,0,1.15,1.26A26.34,26.34,0,0,0,18.08,102.67Z"/><path class="cls-2" d="M40.69,110.19c1.53.11,3.32,0,5,0l5.09,0L61,110.15l-7.74-.2c-.85.32-3.22.23-5.77.14-1.27,0-2.59-.08-3.79-.07-.6,0-1.19,0-1.68,0A9.31,9.31,0,0,0,40.69,110.19Z"/><path class="cls-2" d="M147.44,110.82l2.1.62c13,.13,29.26-1.22,37-.21-5.69-.39,10.75-.71-4.64-.88C175.63,110.91,156.7,111,147.44,110.82Z"/><path class="cls-2" d="M195.4,111.74c-2.12.18,1,.31,2.72.48,4.62.08,9.67-.21,7.16-.47C201.48,112.57,200.24,111.23,195.4,111.74Z"/><path class="cls-2" d="M255.35,111.68c-3.77,0-9,.07-3.57.24,11.36,0,8.41-.75,14.11-1.17C256.45,110.38,248.21,111.35,255.35,111.68Z"/><path class="cls-2" d="M344.66,116.28c-1.26-.54-10.3-.46-12.4-.28C335.21,115.9,340.67,116.06,344.66,116.28Z"/><polygon class="cls-2" points="346.67 111.83 343.48 111.71 339.7 112.53 346.67 111.83"/><polygon class="cls-2" points="414.62 111.39 423.26 110.87 410.41 110.96 414.62 111.39"/><path class="cls-2" d="M427.65,111.53l11.36,0-4-.21C429.56,111.12,431.44,111.52,427.65,111.53Z"/><path class="cls-2" d="M461.74,111.42a19.86,19.86,0,0,1-3.15-.12l-10.3.34Z"/><path class="cls-2" d="M642.62,114.79c-2.55.54,7.78.19,10.93.32C654.17,115,647.44,114.28,642.62,114.79Z"/></g></g></svg>