<svg xmlns="http://www.w3.org/2000/svg" viewBox="0 0 695.66 122.05"><defs><style>.cls-1{fill:#e576b5;}.cls-2{fill:#b96198;}</style></defs><g id="Layer_2" data-name="Layer 2"><g id="Layer_1-2" data-name="Layer 1"><rect class="cls-1" x="4.63" y="5.03" width="691.03" height="110.5" rx="39.8"/><path class="cls-2" d="M4,28.66c-.16.63-.36,1.45-.56,2.23L3.13,32c0,.35-.08.65-.1.89.19-.86.47-1.62.63-2.32A9.58,9.58,0,0,0,4,28.66Z"/><path class="cls-2" d="M309.57,2.54l1.61,0-.82-.12Z"/><path class="cls-2" d="M310.36,2.37l2.82-.62C308.9,2,309.14,2.18,310.36,2.37Z"/><path class="cls-2" d="M4.92,58.27c.15,2.87.37,5.71.74,8.3Z"/><path class="cls-2" d="M11.06,29.07a8.08,8.08,0,0,0,1.08-1.53A13.83,13.83,0,0,0,11.06,29.07Z"/><path class="cls-2" d="M219.51,121l-1.23.23A4,4,0,0,0,219.51,121Z"/><path class="cls-2" d="M241.18,120c1.82,0,3.41,0,5,0l.3-.13A37.45,37.45,0,0,0,241.18,120Z"/><path class="cls-2" d="M232.54,119.16l4.43-.07C235.36,119.07,233.89,119.1,232.54,119.16Z"/><path class="cls-2" d="M376.31,111.91l.67-.62C376.36,111.55,376.19,111.75,376.31,111.91Z"/><path class="cls-2" d="M214.66,121.74c1.3-.14,2.46-.33,3.62-.55C216.32,121.37,213.16,121.43,214.66,121.74Z"/><path class="cls-2" d="M4,27.83a5.8,5.8,0,0,1,0,.83C4.14,27.83,4.26,27.36,4,27.83Z"/><path class="cls-2" d="M5,78.76v-.41C4.83,76.53,4.86,77.23,5,78.76Z"/><path class="cls-2" d="M428,2.25c3-.06,6-.11,8.94-.22C430.13,1.84,428,2,428,2.25Z"/><path class="cls-2" d="M140,119.62c-3.14-1.87,11.37-.08,10.54-1.86-5.9.39-10.32.69-13.05-.28,4.85-1,12.2.1,14.55-1.43l-8.85.59c-5.67-.77,2.13-2-3.14-1.86-7.4,2.11-25.44-.82-33.66-.5l3-.2-12.62-1c-.14,0,0-.08-.07-.12a2.28,2.28,0,0,0-.57.39c-5-1-14.48-1.79-25-1.54-2,.59-10.32.69-18.74.77l-6.23.06-1.5,0c-.48,0-.92,0-1.36,0l-2.56-.07c-1.6-.23-3-.32-4.22-.52a20,20,0,0,0-2.68-.37c1,.18,2,.38,3,.59s2,.24,3,.4,2.07.19,3.19.31c.56,0,1.12.11,1.75.15l2,.11-.87,1.43a21,21,0,0,1-2.85-.14,14.56,14.56,0,0,1-1.49-.21c-.64-.15-.69-.29-.73-.4s-.1-.27-4.68-.66c.28.61,1.27,1,2.69,1.31a21.73,21.73,0,0,0,5.3.38c4.07-.18,8.82-.64,12.28-.52a82.49,82.49,0,0,1-10.31,1c13.9.07,27.23.74,36.83-1.21,4,.42,2.08,1.24-.86,1.44,10.11-1.14,7.35,1.12,16,.07-3,1.81-20.81.95-29.46,2A159.75,159.75,0,0,0,47,117.2c-.95,0-1.89.06-2.87.07l-3-.06a22.89,22.89,0,0,1-3-.24,26.89,26.89,0,0,1-3-.43l-2.92-.64c-1-.24-1.88-.6-2.82-.89l-1.39-.47L26.76,114c-.88-.4-1.77-.78-2.61-1.21,0-.69,2.57-.17,4.37.09s3,0,.57-1.29a72.72,72.72,0,0,1-6.89-4.16c-.84-.6-1.58-1.1-2.27-1.54s-1.24-.91-1.81-1.28l-1.66-1.09-1.56-1.19a15.89,15.89,0,0,1-1.71-1.41c-.57-.57-1.19-1.21-1.88-2a10.18,10.18,0,0,1-.85-1.48c-.23-.44-.41-.84-.57-1.18a9,9,0,0,1-.6-1.62,7,7,0,0,1,0-1.81,4.31,4.31,0,0,0-.08-1c-.06-.43-.25-.94-.4-1.69S8.35,88.44,8,87.25c-.16-.61-.28-1.29-.47-2S7.06,83.61,7,82.66a16.48,16.48,0,0,0,.7,2.16L8.43,87l1,2a16,16,0,0,0,1,2c-.06-.26-.12-.52-.18-.76s-.09-.5-.12-.74c-.09-.47-.17-.9-.26-1.3-.16-.81-.41-1.47-.52-2.09A12.87,12.87,0,0,0,8.3,83.14C7.7,81.46,6.74,80,6.85,76.65c-.26,2.16-1.32,2.32.58,9.85C7.2,87,6.64,85.8,6,84.12a22.44,22.44,0,0,1-.67-2.77Q5.22,80.63,5.1,80C5,79.54,5,79.12,5,78.76l0,.94c0,.31.07.61.11.92a19.64,19.64,0,0,1-.88-2.19,18,18,0,0,1-.69-2.49,49.12,49.12,0,0,1-.21-9.79c1.12,6.32.85-8,1.37-10.5l.23,2.62c-.18-3.68-.23-7.43-.27-10.84,0-.85,0-1.68,0-2.48s.06-1.58.09-2.33,0-1.45.09-2.12S5,39.21,5,38.63l.22.43c0-.69.07-1.34.08-2s.11-1.18.14-1.74.09-1.11.13-1.66A9.42,9.42,0,0,1,5.81,32a23.51,23.51,0,0,1,1-3.73,23.28,23.28,0,0,1,2.39-4.67,10.91,10.91,0,0,1-.48,1.9c-.2.91-.43,1.93-.54,2.65-.22,1.43,0,1.69,1.81-2.31a8,8,0,0,1-.6,2.33c-.19.58-.49,1.19-.71,1.92s-.48,1.52-.77,2.36A48,48,0,0,0,5.73,44c.08-1,.19-1.89.29-2.72a18.29,18.29,0,0,1,.53-2.2,6.83,6.83,0,0,1,1-2.44c.29-.32.42-.12.37.72a15.72,15.72,0,0,1-.08,1.76c0,.77-.26,1.7-.25,2.85A5.84,5.84,0,0,0,8,40.94a9.14,9.14,0,0,0,.31-1.34c.18-1,.2-2.13.47-3.32a22.82,22.82,0,0,1,.83-3.72c.19-.62.4-1.24.63-1.83a10.86,10.86,0,0,1,.87-1.66c-.67.65-.32-.93-.77-.74.68.17,2.64-3.87,5.38-7.53s6.13-6.85,6-7.36L19.85,15l-1.61,1.73-.8.86c-.26.29-.48.62-.72.92L15.3,20.38c-.34-.06-.14-.67.32-1.53.22-.43.52-.93.84-1.45a15.44,15.44,0,0,1,1.1-1.49c1.46-2,3-3.46,1.2-2.54,1.24-.32,3-1.62,5.38-2.93a53.21,53.21,0,0,1,8.31-4l2.35-.71a16.41,16.41,0,0,1,2.34-.6A28.93,28.93,0,0,1,41.6,4.5a19.84,19.84,0,0,1,6.32.35l-3.49-.94c19.88.56,36.41-1.53,56.56-2-6.92.58-7.49,2.58-19.88,1.89,18.92.39,5.56,2,11.4,3,14.74.74,7.65-1.85,12.22-2.47l-10.26.36c13.2-2.31,38.22.51,58.63-.93,1.51.6-4.18.34-6.94.57,9.16,1.2,8.89-.25,14.42-.7,9.48.19,20.88.71,15,2.17,10.41.37-1.11-.88,4.44-1.34l1.94.33,11-1.64c9,.47,20,1.28,24,2.65,21.1-.27,7.35-3.29,22.75-3.83,8.63.75-1.65,1.11-2.48,1.67l13.63-.15c-4.88,1.63-15.86.82-15,2.71,11.39-1.92,15.41-.54,30.71-1.8l-1-.17c6.79-1.3,22.5-.39,31.4-.64-3.62.79-13.48.87-20,1.17,10,.63,35.28,0,43.9-1.68,5.69.27,18,.95,9.71,1.64,20.3.28,8.47-2.41,26-1.9L356,4.08c19.2,1.83,37.81-1.65,56,0l1.13-1.55c3.91.66,12,1,13.49,1.57l-9.31.53C425.06,6,426.44,3.39,436,4.31c-.08-.47-8-1.53-8-2.06-38.92.9-77.48-1.34-116.85.24,1.48.19,3.26.41,2.26.71-4.29-.38-12.21,0-11-.81l1.4-.11C293.6,2.64,284.28.72,278.16.74c-4,1.06-21.26-.45-16.67,1.37L254.71,1c-2.25.67-1.13,1.55-5.31,1.9-7.08-.15-7.22-.87-1.67-1.33-26.95-.7-58.92-.51-86.59.07l7.4-.86c-6.66-.42-24.19,1.51-18.49-.67-13.49.87-36.83-.62-37.79,1.66-8.93-2.2-32.67-1-51.42-.64,1.59,1-2.27,1.1-7.15,1.11H46.16l-1.74,0-1.68.14a23.12,23.12,0,0,0-2.59.38c-.37-.14-.38-.3-.13-.49a5,5,0,0,1,1.51-.47c.73-.16,1.65-.3,2.68-.45s2-.18,3.1-.27C51.6.76,56.25.5,56.4,0,54,.29,51.33.48,48.53.6L44.2.75,41.75.9a20.74,20.74,0,0,0-2.48.21A46.76,46.76,0,0,0,20.16,7.77,39.28,39.28,0,0,0,7.43,20.51c-.64,1.13-1.22,2.21-1.73,3.24s-.79,2.07-1.09,3A11.37,11.37,0,0,0,4,29.33,11.75,11.75,0,0,0,4,31.41a12.39,12.39,0,0,0-.54,1.33,4,4,0,0,1-.28.6c-.13.19-.15,0-.11-.47-.26,1-.57,2-.91,3.11s-.53,2.26-.79,3.4a28.29,28.29,0,0,0-.56,3.46C.71,43.41.64,44,.58,44.51S.5,45.5.48,46c.66,2.21,1-5.83,1.22,3.07C1.55,56.11.49,52.09,0,55c.22,3.37.4,7.24.58,11.18.09,2,.18,4,.27,5.91C.9,73.07,1,74,1,75l0,.72.07.76L1.25,78A36.48,36.48,0,0,0,3.62,88,27,27,0,0,0,5.15,91c.23.38.44.7.62,1a2.43,2.43,0,0,0,.54.51c.36,1,.7,2,1,2.92s.63,1.66.76,2.2c.29,1.07,0,1.19-1.36-.81C7.52,98,8.23,99.16,9,100.17L11.27,103a56.83,56.83,0,0,0,4.22,4.19c.66.58,1.27,1.15,1.88,1.66l1.84,1.39a34.82,34.82,0,0,0,3.52,2.4,31.83,31.83,0,0,0,3.75,2.06A36,36,0,0,0,31,116.5a39.89,39.89,0,0,0,13.51,1.94,32.25,32.25,0,0,0-4.27,0c-1,0-1.6.1-2.37.16-.38,0-.79,0-1.28,0a7.73,7.73,0,0,1-1.77-.21,26.81,26.81,0,0,1-6.11-2c.5.33,1.08.67,1.73,1a13.1,13.1,0,0,0,2.2.92c.8.29,1.67.57,2.6.84s1.93.4,3,.59l1.6.26c.55,0,1.11.07,1.68.11l1.74.08c.58,0,1.22.06,1.73,0l6.79-.13c9.4-.22,19.87-.58,28.49,0l7-1.39c10.51-.25,11.13,1.09,3.78,1.59,17.86.87,27.35,0,41,0,.81.17.19.45-2.11.38l19.76,0c2-.35,9.1-1.06,7.64-2C154.85,119.66,150.72,120.15,140,119.62Z"/><path class="cls-2" d="M157.29,118.86l.52-.17H157A.68.68,0,0,1,157.29,118.86Z"/><path class="cls-2" d="M7.39,71.87c-.17,1-.3,1.86-.39,2.66q-.06.6-.12,1.14c0,.35,0,.67,0,1A43.3,43.3,0,0,0,7.39,71.87Z"/><path class="cls-2" d="M342.84,116.35c-2.49-2.13-12,.34-20.62-.23,8.19-.32,6.13-1.56,5.08-2.18-10.13,2.75-12.41-.55-31.14,0-.4-.9,8.63-1,9.69-2-10.3.69-26.09,1.06-28.4,2.59-17.48,0-29.89-.52-40.42-.27,12.65-.62,2.33-1.54,11.6-2.86-12.82,1.79-41.48,3.94-60.22,6.13-2.29-1.69-3.12-1.87-.81-3.4-21-1.12-6.11,1.56-26.1,1.06l9.24.3c-9.4.51-10,2.1-12.93,3.21l23.43-.23c-.21,1.16-14.75,1-19.14,1.28-7,1.39,12.6,1,10.05,2.09,3.39-.92,12.63-.62,18.54-1l1,.62c10.92.65,17.05-.91,26.93-.88.88.18,1,.31.85.41a70.89,70.89,0,0,1,13-1.8l-4.6.07c8.42-1.48,29.26-2.42,15.6-4l23.77.47c-2.66,1.63-7.43,4.12-21.16,4.3l-1.61.69c10.29.92,29-1.26,22.32-2.65,10.36-3.92,36.43-.14,53.91-1.78,1.23,1.07-8.44,1.49-12.68,2.23-5.25.12-9,.15-9.44-.75-22.53.59,4.58,3.38-20.66,3-12.4-.54,15.18-1.71-3.14-1.86l-13.07,3c11.36-.07,21.61-.56,30.74-.91,50.72-1.95,86.57-.3,86.57-.3l223.53-1c23.38-.42,31.79-.29,41.06-3.22-4.83-.6-19.14-.33-14.29-1.34-2.52,1.09-11.38,1.68-23.58,1.58-1.25-1.06,11.18-.52,8-.77l-2.32-.07c1.26-.54,3.38-.92,7.15-.94-13.65-1.62-39.33-1.27-49,.76-11.12-1.09,7.59-1.66,13.29-2.5-39.12-.83-65.64-.66-105.19-.76-.64,1.88-4,1.19-9.49,2.48l-3.36-.7c1.7.35-3.82,1.64,4,2-22.69-1.46-26.94,2.51-42.53,3.33l1.09-1c-12.86.17-16.65.2-27.79.72-20.6-1.84,18.1-.3,12.43-2.68l-5.89.4c3.36-.92,7.18-2.56,13.7-3.23-19.78,1.56-28.38-.62-49.85.59,2.54-1.09,21.87-1.93,27.16-2.05-7.26-.11-20.25.67-20.86-.33l-1.47,1.36c-12.81.18,1.69-1.26-2.49-2.13C342,111.34,368.31,115.55,342.84,116.35Z"/><path class="cls-2" d="M36.37,114.71c.9.18,1.78.32,2.62.47l1.25.19c.42,0,.83,0,1.23.07a43,43,0,0,0,4.53,0c-1.61,0-3.22-.11-4.83-.17a19.35,19.35,0,0,1-2.4-.26Z"/><path class="cls-2" d="M96.65,113a4.79,4.79,0,0,1,1.13-.49C96.72,112.6,96.29,112.76,96.65,113Z"/><path class="cls-2" d="M102.62,111.08c1.47.61-2.36.63-4.84,1.4C101.69,112,111.69,112,102.62,111.08Z"/><path class="cls-2" d="M662.82,110.78c-.39.15-1.12.36-2,.59-.43.12-.88.25-1.35.36l-1.38.21c-.89.14-1.68.28-2.13.39s-.62.18-.13.27a40.36,40.36,0,0,0,10.51-2C665.17,110.63,664,110.75,662.82,110.78Z"/><path class="cls-2" d="M682.11,102.12A41.91,41.91,0,0,0,689,93.88c.28-1.22.49-2.43.73-3.61s.23-2.41.35-3.58c-.46,1.3-.84,2.37-1.15,3.26s-.66,1.57-.88,2.17c-.1.3-.2.58-.29.83s-.19.47-.28.67c-.16.43-.3.8-.43,1.17a10.72,10.72,0,0,1-1.21,2.63c-.35.55-.76,1.22-1.33,2S683.08,101.07,682.11,102.12Z"/><path class="cls-2" d="M694.12,75.05c.17.88.23,1.68.35,2.54C694.41,75.28,694.23,74.74,694.12,75.05Z"/><path class="cls-2" d="M693.34,74.59,692,70.13l.25,3.72.12,1.86,0,1.71,0,1.72a16.53,16.53,0,0,1-.1,1.72,25,25,0,0,1-.39,3.44c.12-.43.29-.84.38-1.28l.26-1.3c.16-.88.41-1.74.49-2.63.45,0,.86-3.47,1-4l-1-5.6A34.39,34.39,0,0,1,693.34,74.59Z"/><path class="cls-2" d="M693.27,61.87a9.38,9.38,0,0,1-.41,1C693,63,693.16,62.59,693.27,61.87Z"/><path class="cls-2" d="M694.07,33.31c.12,1.48-.34.8-1-.27a20.37,20.37,0,0,0-2-2.75c1.82,5.16,2.34,8,3.15,10.61.23,1.35.5,2.67.63,4.29a50,50,0,0,1-.06,6.05c-1.06-15.44-.79,5.56-1.56,10.63a27.85,27.85,0,0,0,1.57-6.9c.21-1.62.39-3.51.54-5.71a71.56,71.56,0,0,0,.21-7.61,14.18,14.18,0,0,0-.93-1.15,20.69,20.69,0,0,1-.42-4.22A8.05,8.05,0,0,0,694.07,33.31Z"/><path class="cls-2" d="M646.41,7l9.15-1.24a19.92,19.92,0,0,0,3.09.51l1.2.15,1.28.27c.87.2,1.78.36,2.66.59,3.5,1,6.43,2.61,5.88,3.06a12.73,12.73,0,0,1,1.53.56l1.25.48c.77.28,1.43.47,2,.74l1.86.76a12.47,12.47,0,0,1,2.23,1.2,107.22,107.22,0,0,0,7.82,8.14l-1.06-1.56-1.1-1.33a22.84,22.84,0,0,0-2-2.3l-1.83-1.84-1.67-1.41c-.52-.42-1-.85-1.43-1.18L676,11.65a22.52,22.52,0,0,0-2.25-1.5c-.75-.41-1.47-.82-2.26-1.27s-1.74-.76-2.82-1.23a36.35,36.35,0,0,0-9.86-2.3,3.83,3.83,0,0,1,1.85,0c.93.13,2.1.33,3.25.53a62,62,0,0,0-12.3-1.49C650.42,5.9,634.46,6,646.41,7Z"/><path class="cls-2" d="M628.33,6c9.88-.08,15.31-1.26,10.44-2.08l-21,1C623.89,4.91,631.41,4.78,628.33,6Z"/><path class="cls-2" d="M613.76,6c-3.91-.66-10.32-2.09-17.1-.79C607.92,5,602.63,6.91,613.76,6Z"/><path class="cls-2" d="M542.46,4.8l19.45.84c3.61,1.65-9.31.52-15.27,1.26,16.53.34,11.26-.2,23.75-1.23,4.74.1,12.09-.76,17.65-1.22C562.89,5.8,561.65,1.75,542.46,4.8Z"/><polygon class="cls-2" points="581.36 6.47 583.59 5.8 574.26 6.32 581.36 6.47"/><path class="cls-2" d="M496.47,3c-11.69-2-22.38,1.11-35.72.26,1.41-.11.41-.27,3.2-.5l-11.27.19-.52-.44c.66,1.17-11,1.64-16,2.54,11.54,1.25,5.83-1.46,16-.1-2.44.54-4.21,1.34-6.54,1.77a62.91,62.91,0,0,0,11.71-1.95c7.51-.13,5.26.54,5.82,1,8.36-.69,8.48-2.41,21.25-2,8.21,1-4.85,1.62,9.18,1.19-6.93-1.87,14.17.3,19.59-.88,10.43.36,17.24,1.5,15,2.18-.29-1.45,8.9-2.69,16.84-3.1L527.32,4.34l-6-1.7a233.7,233.7,0,0,1-26.26.46Z"/><path class="cls-2" d="M445.58,6.7c-1.23.11-2.28.22-3.86.31A18.38,18.38,0,0,0,445.58,6.7Z"/><polygon class="cls-2" points="531.06 6.72 526.89 7.06 529.8 7.55 531.06 6.72"/><path class="cls-2" d="M436.71,7.91c2.35,0,3.19-.51.83-.55l-3.61.79Z"/><polygon class="cls-2" points="426.15 6.83 420.31 5.85 416.7 6.64 426.15 6.83"/><path class="cls-2" d="M186.45,5.86c7.65.6,6.94-.57,8.2-1.41C182.84,4.21,194.38,5.46,186.45,5.86Z"/><path class="cls-2" d="M36.26,8.24c4.08-.48,7.7-.68,11.91-.82S56.32,7,60.57,7c-3.83-.29-8.31-.35-12.7-.26l-3.27.09c-1,.08-2,.19-3,.28a18.77,18.77,0,0,0-2.8.5l-1.3.3L36.86,8Z"/><path class="cls-2" d="M10.87,55.08c-.37-2.12-.57-5.07-.72-.45L8.07,46.36C7.39,58.76,10,55.47,10.87,55.08Z"/><path class="cls-2" d="M35.87,107.85l-1.23-.21c-.4-.08-.79-.22-1.19-.32-.79-.24-1.61-.41-2.39-.69l-2.34-.91c-.79-.29-1.5-.74-2.27-1.1l1.11.69a7,7,0,0,0,1.13.64L31,107.11a21.9,21.9,0,0,1-8.23-2.64A18.64,18.64,0,0,0,25.31,106c.86.42,1.66.9,2.49,1.22l2.38.85a13.77,13.77,0,0,0,2.12.51c.65.12,1.23.2,1.72.25a4.92,4.92,0,0,0,1.24-.1C35.89,108.58,36.12,108.3,35.87,107.85Z"/><path class="cls-2" d="M15.69,98a30.45,30.45,0,0,0,2.68,2.92,10.59,10.59,0,0,0-.9-1.41A11.72,11.72,0,0,0,15.69,98Z"/><path class="cls-2" d="M21.52,103.81l1.28.66-1.2-.8c-.39-.28-.74-.6-1.11-.9l-1.1-.91a7.58,7.58,0,0,1-1-.94,4.68,4.68,0,0,0,1,1.27A12.47,12.47,0,0,0,21.52,103.81Z"/><path class="cls-2" d="M43.11,110l1.1,0c.36,0,.83,0,1.24,0L48,110l5.09,0,10.19-.11-7.75-.4c-.84.63-3.21.44-5.76.27-1.28-.09-2.6-.17-3.8-.15a15.75,15.75,0,0,0-1.66.12A4.58,4.58,0,0,0,43.11,110Z"/><path class="cls-2" d="M149.75,111.13l2.11,1.24c13,.28,29.26-2.42,37-.41-5.69-.77,10.74-1.41-4.65-1.76C177.94,111.31,159,111.43,149.75,111.13Z"/><path class="cls-2" d="M197.72,113c-2.12.37,1,.62,2.72,1,4.62.14,9.66-.43,7.15-1C203.8,114.64,202.56,112,197.72,113Z"/><path class="cls-2" d="M257.67,112.86c-3.77,0-9,.15-3.57.47,11.35-.07,8.41-1.49,14.11-2.33C258.77,110.25,250.53,112.19,257.67,112.86Z"/><path class="cls-2" d="M347,122.05c-1.26-1.06-10.3-.92-12.4-.54A89.23,89.23,0,0,1,347,122.05Z"/><polygon class="cls-2" points="348.99 113.17 345.8 112.92 342.01 114.56 348.99 113.17"/><polygon class="cls-2" points="416.94 112.29 425.58 111.25 412.73 111.42 416.94 112.29"/><path class="cls-2" d="M430,112.56l11.36-.07-4-.42C431.87,111.75,433.76,112.54,430,112.56Z"/><path class="cls-2" d="M464.06,112.34a10.05,10.05,0,0,1-3.15-.24l-10.3.69Z"/><path class="cls-2" d="M644.94,119.07c-2.55,1.09,7.78.4,10.92.65C656.49,119.44,649.76,118.05,644.94,119.07Z"/></g></g></svg>